<mxfile host="app.diagrams.net" modified="2024-04-02T18:52:10.030Z" agent="Mozilla/5.0 (Windows NT 10.0; Win64; x64) AppleWebKit/537.36 (KHTML, like Gecko) Chrome/123.0.0.0 Safari/537.36" etag="ohXRF4btYnGVcJJbSuHj" version="24.2.1" type="device">
  <diagram name="PÃ¡gina-1" id="cFz-ULvwQEz-yNL65oUf">
    <mxGraphModel dx="1969" dy="962" grid="1" gridSize="10" guides="1" tooltips="1" connect="1" arrows="1" fold="1" page="1" pageScale="1" pageWidth="827" pageHeight="1169" math="0" shadow="0">
      <root>
        <mxCell id="0" />
        <mxCell id="1" parent="0" />
        <mxCell id="xe8YEvHw9FKcvuPt4l4c-3" value="" style="rounded=0;whiteSpace=wrap;html=1;" vertex="1" parent="1">
          <mxGeometry x="120" y="690" width="590" height="150" as="geometry" />
        </mxCell>
        <mxCell id="xe8YEvHw9FKcvuPt4l4c-4" value="&lt;span style=&quot;font-size: 18px;&quot;&gt;PfSense&lt;/span&gt;" style="text;strokeColor=none;align=center;fillColor=none;html=1;verticalAlign=middle;whiteSpace=wrap;rounded=0;" vertex="1" parent="1">
          <mxGeometry x="380" y="800" width="60" height="30" as="geometry" />
        </mxCell>
        <mxCell id="xe8YEvHw9FKcvuPt4l4c-5" value="&lt;font style=&quot;font-size: 18px;&quot;&gt;WAN Adapter 10.0.2.6&lt;/font&gt;" style="text;strokeColor=none;align=center;fillColor=none;html=1;verticalAlign=middle;whiteSpace=wrap;rounded=0;" vertex="1" parent="1">
          <mxGeometry x="130" y="640" width="60" height="30" as="geometry" />
        </mxCell>
        <mxCell id="xe8YEvHw9FKcvuPt4l4c-6" value="" style="rounded=0;whiteSpace=wrap;html=1;" vertex="1" parent="1">
          <mxGeometry x="200" y="680" width="50" height="30" as="geometry" />
        </mxCell>
        <mxCell id="xe8YEvHw9FKcvuPt4l4c-7" value="" style="endArrow=classic;html=1;rounded=0;" edge="1" parent="1">
          <mxGeometry width="50" height="50" relative="1" as="geometry">
            <mxPoint x="220" y="670" as="sourcePoint" />
            <mxPoint x="170" y="510" as="targetPoint" />
          </mxGeometry>
        </mxCell>
        <mxCell id="xe8YEvHw9FKcvuPt4l4c-8" value="" style="image;aspect=fixed;perimeter=ellipsePerimeter;html=1;align=center;shadow=0;dashed=0;spacingTop=3;image=img/lib/active_directory/internet_cloud.svg;" vertex="1" parent="1">
          <mxGeometry x="100" y="440" width="100" height="63" as="geometry" />
        </mxCell>
        <mxCell id="xe8YEvHw9FKcvuPt4l4c-9" value="&lt;font style=&quot;font-size: 18px;&quot;&gt;Internet&lt;/font&gt;" style="text;strokeColor=none;align=center;fillColor=none;html=1;verticalAlign=middle;whiteSpace=wrap;rounded=0;" vertex="1" parent="1">
          <mxGeometry x="120" y="400" width="60" height="30" as="geometry" />
        </mxCell>
        <mxCell id="xe8YEvHw9FKcvuPt4l4c-10" value="" style="rounded=0;whiteSpace=wrap;html=1;" vertex="1" parent="1">
          <mxGeometry x="420" y="680" width="50" height="30" as="geometry" />
        </mxCell>
        <mxCell id="xe8YEvHw9FKcvuPt4l4c-11" value="&lt;font style=&quot;font-size: 18px;&quot;&gt;LAN Adapter&lt;/font&gt;&lt;div&gt;&lt;font style=&quot;font-size: 18px;&quot;&gt;192.168.1.1&lt;/font&gt;&lt;div&gt;&lt;font style=&quot;font-size: 18px;&quot;&gt;&lt;br&gt;&lt;/font&gt;&lt;/div&gt;&lt;/div&gt;" style="text;strokeColor=none;align=center;fillColor=none;html=1;verticalAlign=middle;whiteSpace=wrap;rounded=0;" vertex="1" parent="1">
          <mxGeometry x="320" y="620" width="100" height="84" as="geometry" />
        </mxCell>
        <mxCell id="xe8YEvHw9FKcvuPt4l4c-12" value="" style="endArrow=classic;html=1;rounded=0;" edge="1" parent="1">
          <mxGeometry width="50" height="50" relative="1" as="geometry">
            <mxPoint x="444.41" y="670" as="sourcePoint" />
            <mxPoint x="410" y="470" as="targetPoint" />
          </mxGeometry>
        </mxCell>
        <mxCell id="xe8YEvHw9FKcvuPt4l4c-13" value="" style="image;html=1;image=img/lib/clip_art/computers/Laptop_128x128.png" vertex="1" parent="1">
          <mxGeometry x="363" y="365" width="104" height="100" as="geometry" />
        </mxCell>
        <mxCell id="xe8YEvHw9FKcvuPt4l4c-14" value="&lt;font style=&quot;font-size: 18px;&quot;&gt;Kali Linux&lt;/font&gt;&lt;div&gt;&lt;font style=&quot;font-size: 18px;&quot;&gt;192.168.1.100&lt;/font&gt;&lt;/div&gt;" style="text;strokeColor=none;align=center;fillColor=none;html=1;verticalAlign=middle;whiteSpace=wrap;rounded=0;" vertex="1" parent="1">
          <mxGeometry x="380" y="325" width="60" height="30" as="geometry" />
        </mxCell>
        <mxCell id="xe8YEvHw9FKcvuPt4l4c-15" value="" style="rounded=0;whiteSpace=wrap;html=1;" vertex="1" parent="1">
          <mxGeometry x="580" y="680" width="53" height="30" as="geometry" />
        </mxCell>
        <mxCell id="xe8YEvHw9FKcvuPt4l4c-16" value="&lt;font style=&quot;font-size: 18px;&quot;&gt;SPAN Port&lt;/font&gt;" style="text;strokeColor=none;align=center;fillColor=none;html=1;verticalAlign=middle;whiteSpace=wrap;rounded=0;" vertex="1" parent="1">
          <mxGeometry x="640" y="704" width="60" height="30" as="geometry" />
        </mxCell>
        <mxCell id="xe8YEvHw9FKcvuPt4l4c-17" value="" style="endArrow=classic;html=1;rounded=0;" edge="1" parent="1">
          <mxGeometry width="50" height="50" relative="1" as="geometry">
            <mxPoint x="600" y="670" as="sourcePoint" />
            <mxPoint x="670" y="520" as="targetPoint" />
          </mxGeometry>
        </mxCell>
        <mxCell id="xe8YEvHw9FKcvuPt4l4c-18" value="" style="image;html=1;image=img/lib/clip_art/computers/Laptop_128x128.png" vertex="1" parent="1">
          <mxGeometry x="633" y="420" width="110" height="93" as="geometry" />
        </mxCell>
        <mxCell id="xe8YEvHw9FKcvuPt4l4c-19" value="&lt;font style=&quot;font-size: 18px;&quot;&gt;Kali Sniffer&lt;/font&gt;" style="text;strokeColor=none;align=center;fillColor=none;html=1;verticalAlign=middle;whiteSpace=wrap;rounded=0;" vertex="1" parent="1">
          <mxGeometry x="670" y="380" width="60" height="30" as="geometry" />
        </mxCell>
        <mxCell id="xe8YEvHw9FKcvuPt4l4c-20" value="" style="rounded=0;whiteSpace=wrap;html=1;" vertex="1" parent="1">
          <mxGeometry x="470" y="685" width="110" height="20" as="geometry" />
        </mxCell>
        <mxCell id="xe8YEvHw9FKcvuPt4l4c-21" value="" style="endArrow=classic;html=1;rounded=0;" edge="1" parent="1">
          <mxGeometry width="50" height="50" relative="1" as="geometry">
            <mxPoint x="540" y="570" as="sourcePoint" />
            <mxPoint x="520" y="670" as="targetPoint" />
          </mxGeometry>
        </mxCell>
        <mxCell id="xe8YEvHw9FKcvuPt4l4c-22" value="&lt;font style=&quot;font-size: 18px;&quot;&gt;Bridged Connection&lt;/font&gt;" style="text;strokeColor=none;align=center;fillColor=none;html=1;verticalAlign=middle;whiteSpace=wrap;rounded=0;" vertex="1" parent="1">
          <mxGeometry x="510" y="530" width="60" height="30" as="geometry" />
        </mxCell>
      </root>
    </mxGraphModel>
  </diagram>
</mxfile>
